<?xml version="1.0" encoding="UTF-8" standalone="no"?>
<svg
   xmlns:dc="http://purl.org/dc/elements/1.1/"
   xmlns:cc="http://creativecommons.org/ns#"
   xmlns:rdf="http://www.w3.org/1999/02/22-rdf-syntax-ns#"
   xmlns:svg="http://www.w3.org/2000/svg"
   xmlns="http://www.w3.org/2000/svg"
   xmlns:sodipodi="http://sodipodi.sourceforge.net/DTD/sodipodi-0.dtd"
   xmlns:inkscape="http://www.inkscape.org/namespaces/inkscape"
   inkscape:version="1.0 (4035a4fb49, 2020-05-01)"
   sodipodi:docname="fish-logo.svg"
   width="100"
   height="120"
   viewBox="0 0 26.458333 31.749999"
   version="1.1"
   id="svg8">
  <sodipodi:namedview
     inkscape:current-layer="svg8"
     inkscape:window-maximized="1"
     inkscape:window-y="27"
     inkscape:window-x="0"
     inkscape:cy="60"
     inkscape:cx="50"
     inkscape:zoom="5.0440284"
     showgrid="false"
     id="namedview2333"
     inkscape:window-height="1016"
     inkscape:window-width="1920"
     inkscape:pageshadow="2"
     inkscape:pageopacity="0"
     guidetolerance="10"
     gridtolerance="10"
     objecttolerance="10"
     borderopacity="1"
     bordercolor="#666666"
     pagecolor="#ffffff" />
  <defs
     id="defs2">
    <filter
       style="color-interpolation-filters:sRGB"
       id="filter1857"
       x="-0.04402807"
       width="1.0880561"
       y="-0.044453591"
       height="1.0889072">
      <feGaussianBlur
         stdDeviation="0.36329605"
         id="feGaussianBlur1859" />
    </filter>
    <filter
       height="1.3558416"
       y="-0.1779208"
       width="1.3782489"
       x="-0.18912447"
       id="filter2996"
       style="color-interpolation-filters:sRGB"
       inkscape:collect="always">
      <feGaussianBlur
         id="feGaussianBlur2998"
         stdDeviation="0.14247936"
         inkscape:collect="always" />
    </filter>
    <filter
       height="1.4708705"
       y="-0.23543526"
       width="1.4708705"
       x="-0.23543526"
       id="filter3000"
       style="color-interpolation-filters:sRGB"
       inkscape:collect="always">
      <feGaussianBlur
         id="feGaussianBlur3002"
         stdDeviation="0.14247936"
         inkscape:collect="always" />
    </filter>
    <filter
       height="1.8254131"
       y="-0.41270654"
       width="1.8254131"
       x="-0.41270654"
       id="filter3004"
       style="color-interpolation-filters:sRGB"
       inkscape:collect="always">
      <feGaussianBlur
         id="feGaussianBlur3006"
         stdDeviation="0.14247936"
         inkscape:collect="always" />
    </filter>
    <filter
       height="1.1866427"
       y="-0.093321368"
       width="1.2184811"
       x="-0.10924057"
       id="filter3008"
       style="color-interpolation-filters:sRGB"
       inkscape:collect="always">
      <feGaussianBlur
         id="feGaussianBlur3010"
         stdDeviation="0.14247936"
         inkscape:collect="always" />
    </filter>
    <filter
       height="1.1080475"
       y="-0.054023758"
       width="1.1741211"
       x="-0.087060556"
       id="filter3012"
       style="color-interpolation-filters:sRGB"
       inkscape:collect="always">
      <feGaussianBlur
         id="feGaussianBlur3014"
         stdDeviation="0.14247936"
         inkscape:collect="always" />
    </filter>
    <filter
       height="1.0776152"
       y="-0.038807583"
       width="1.0693113"
       x="-0.034655645"
       id="filter3016"
       style="color-interpolation-filters:sRGB"
       inkscape:collect="always">
      <feGaussianBlur
         id="feGaussianBlur3018"
         stdDeviation="0.14247936"
         inkscape:collect="always" />
    </filter>
  </defs>
  <metadata
     id="metadata5">
    <rdf:RDF>
      <cc:Work
         rdf:about="">
        <dc:format>image/svg+xml</dc:format>
        <dc:type
           rdf:resource="http://purl.org/dc/dcmitype/StillImage" />
        <dc:title></dc:title>
      </cc:Work>
    </rdf:RDF>
  </metadata>
  <path
     id="path1719-2"
     style="opacity:0.3;fill:#000000;fill-opacity:1;stroke:#000000;stroke-width:0.79375;stroke-linecap:round;stroke-linejoin:round;stroke-miterlimit:4;stroke-dasharray:none;stroke-opacity:1;filter:url(#filter3016)"
     d="m 14.065063,23.425675 c 5e-6,2.43044 -1.688852,4.57583 -4.4790581,4.40071 -2.4414646,-0.21588 -3.6599409,-1.54288 -5.3880352,-3.87289 1.1891386,-2.84466 2.7189557,-4.62274 5.3880352,-4.92852 2.4737161,0 4.4790571,1.97026 4.4790581,4.4007 z" />
  <path
     id="path920-3-0"
     d="m 0.65773439,20.804045 c -0.25843995,1.37864 0.92348411,2.34028 2.13531811,3.10574 -1.357094,0.68448 -2.59045501,1.45089 -2.1509081,3.02953 6.2178318,0.95401 3.8791554,-7.32726 0.0156,-6.13527 z"
     style="opacity:0.3;fill:#000000;fill-opacity:1;stroke:#000000;stroke-width:0.79375;stroke-linecap:round;stroke-linejoin:round;stroke-miterlimit:4;stroke-dasharray:none;stroke-opacity:1;filter:url(#filter3012)" />
  <path
     id="path918-1-6"
     d="m 8.6185324,25.849515 c -2.8214554,5.11268 2.7464356,4.60165 2.3033966,0.16121"
     style="opacity:0.3;fill:#000000;fill-opacity:1;stroke:#000000;stroke-width:0.79375;stroke-linecap:round;stroke-linejoin:round;stroke-miterlimit:4;stroke-dasharray:none;stroke-opacity:1;filter:url(#filter3008)" />
  <circle
     r="0.7262091"
     cy="17.399828"
     cx="13.98935"
     id="path875-3-6-5"
     style="opacity:0.3;fill:#000000;fill-opacity:1;stroke:#000000;stroke-width:0.79375;stroke-linecap:round;stroke-linejoin:round;stroke-miterlimit:4;stroke-dasharray:none;stroke-opacity:1;filter:url(#filter3000)" />
  <ellipse
     cy="14.002302"
     cx="17.422997"
     id="path875-3-3-5"
     style="opacity:0.3;fill:#000000;fill-opacity:1;stroke:#000000;stroke-width:0.79375;stroke-linecap:round;stroke-linejoin:round;stroke-miterlimit:4;stroke-dasharray:none;stroke-opacity:1;filter:url(#filter2996)"
     rx="0.90403545"
     ry="0.96096253" />
  <path
     d="m 14.2795,23.158784 c 5e-6,2.43044 -1.688852,4.57583 -4.4790571,4.40071 -2.4414646,-0.21588 -3.659941,-1.54288 -5.3880351,-3.87289 1.1891384,-2.84466 2.7189555,-4.62274 5.3880351,-4.92852 2.4737151,0 4.4790561,1.97026 4.4790571,4.4007 z"
     style="fill:#ffffff;fill-opacity:1;stroke:#000000;stroke-width:0.79375;stroke-linecap:round;stroke-linejoin:round;stroke-miterlimit:4;stroke-dasharray:none;stroke-opacity:1"
     id="path1719" />
  <path
     style="fill:#ffffff;fill-opacity:1;stroke:#000000;stroke-width:0.79375;stroke-linecap:round;stroke-linejoin:round;stroke-miterlimit:4;stroke-dasharray:none;stroke-opacity:1"
     d="m 0.87217244,20.537154 c -0.25843996,1.37864 0.92348396,2.34028 2.13531796,3.10574 -1.357094,0.68448 -2.59045487,1.45089 -2.15090796,3.02953 6.21783186,0.95401 3.87915536,-7.32726 0.0156,-6.13527 z"
     id="path920-3" />
  <path
     style="fill:#ffffff;fill-opacity:1;stroke:#000000;stroke-width:0.79375;stroke-linecap:round;stroke-linejoin:round;stroke-miterlimit:4;stroke-dasharray:none;stroke-opacity:1"
     d="m 8.8329704,25.582624 c -2.8214555,5.11268 2.7464346,4.60165 2.3033956,0.16121"
     id="path918-1" />
  <circle
     r="0.41427797"
     cy="22.364113"
     cx="11.505808"
     id="path875-3"
     style="opacity:0.99;fill:#000000;fill-opacity:1;stroke:#000000;stroke-width:0.79375;stroke-linecap:round;stroke-linejoin:round;stroke-miterlimit:4;stroke-dasharray:none;stroke-opacity:1" />
  <circle
     style="opacity:0.99;fill:#ffffff;fill-opacity:1;stroke:#000000;stroke-width:0.79375;stroke-linecap:round;stroke-linejoin:round;stroke-miterlimit:4;stroke-dasharray:none;stroke-opacity:1"
     id="path875-3-6"
     cx="14.203786"
     cy="17.132933"
     r="0.7262091" />
  <ellipse
     ry="0.96096253"
     rx="0.90403545"
     style="opacity:0.99;fill:#ffffff;fill-opacity:1;stroke:#000000;stroke-width:0.79375;stroke-linecap:round;stroke-linejoin:round;stroke-miterlimit:4;stroke-dasharray:none;stroke-opacity:1"
     id="path875-3-3"
     cx="17.63744"
     cy="13.735412" />
  <path
     sodipodi:nodetypes="cccccccccccccccc"
     d="m 18.71008,-1.9896068 c -1.589415,0.012292 -3.089743,0.7257681 -4.089156,1.9445841 -0.660197,-0.80970987 -1.698207,-1.2865816 -2.800863,-1.2867431 -1.9317462,-1.755e-4 -3.4978682,1.43545551 -3.4979779,3.2065226 -5.38e-5,1.5593152 0.4570958,2.9838351 1.6908149,2.7532671 -0.5898754,0.1640021 -0.4027061,1.5742568 1.157723,2.3016715 0.215147,1.5482257 1.351912,2.0436499 2.104132,1.300229 0.944192,0.5238774 1.807995,0.1112219 2.214445,-0.5693772 1.047717,1.6482562 1.735894,1.7900647 3.262223,0.8272427 0.656668,1.1356918 1.974919,3.5092521 5.251359,-0.024321 4e-6,-0.026014 -3.29e-4,-0.052027 -0.001,-0.078031 1.212066,-0.5463435 1.988994,-1.7360592 1.989026,-3.0458089 -1.1e-4,-1.3211843 -0.790571,-2.5190185 -2.018481,-3.058728 -0.472249,-2.47650233 -2.665538,-4.2705571 -5.22087,-4.2705404 -0.01378,-5.29e-5 -0.02756,-5.29e-5 -0.04134,0 z"
     style="opacity:1;fill:#ffffff;fill-opacity:1;stroke:#000000;stroke-width:0.79374998;stroke-linecap:round;stroke-linejoin:round;stroke-opacity:1;stroke-miterlimit:4;stroke-dasharray:none"
     id="path2932" />
  <circle
     style="opacity:0.3;fill:#000000;fill-opacity:1;stroke:#000000;stroke-width:0.79375;stroke-linecap:round;stroke-linejoin:round;stroke-miterlimit:4;stroke-dasharray:none;stroke-opacity:1;filter:url(#filter3004)"
     id="path875-3-1"
     cx="11.505808"
     cy="22.364111"
     r="0.41427797" />
</svg>
